<svg xmlns="http://www.w3.org/2000/svg" viewBox="0 0 3.18 117"><defs><style>.cls-1{fill:#8191b1;}.cls-2{fill:#5282f0;}</style></defs><title>dotted-line</title><g id="Layer_2" data-name="Layer 2"><g id="Layer_1-2" data-name="Layer 1"><rect class="cls-1" x="1.04" width="1.09" height="4.04"/><rect class="cls-1" x="1.04" y="4.84" width="1.09" height="4.04"/><rect class="cls-1" x="1.04" y="9.68" width="1.09" height="4.04"/><rect class="cls-1" x="1.04" y="14.53" width="1.09" height="4.04"/><rect class="cls-1" x="1.04" y="19.37" width="1.09" height="4.04"/><rect class="cls-1" x="1.04" y="24.21" width="1.09" height="4.04"/><rect class="cls-1" x="1.04" y="29.05" width="1.09" height="4.04"/><rect class="cls-1" x="1.04" y="33.9" width="1.09" height="4.04"/><rect class="cls-1" x="1.04" y="38.74" width="1.09" height="4.04"/><rect class="cls-1" x="1.04" y="43.58" width="1.09" height="4.04"/><rect class="cls-1" x="1.04" y="48.42" width="1.09" height="4.04"/><rect class="cls-1" x="1.04" y="53.27" width="1.09" height="4.04"/><rect class="cls-1" x="1.04" y="58.11" width="1.09" height="4.04"/><rect class="cls-1" x="1.04" y="62.95" width="1.09" height="4.04"/><rect class="cls-1" x="1.04" y="67.79" width="1.09" height="4.04"/><rect class="cls-1" x="1.04" y="72.64" width="1.09" height="4.04"/><rect class="cls-1" x="1.04" y="77.48" width="1.09" height="4.04"/><rect class="cls-1" x="1.04" y="82.32" width="1.09" height="4.04"/><rect class="cls-1" x="1.04" y="87.16" width="1.09" height="4.04"/><rect class="cls-1" x="1.04" y="92.01" width="1.09" height="4.04"/><rect class="cls-1" x="1.04" y="96.85" width="1.09" height="4.04"/><rect class="cls-1" x="1.04" y="101.69" width="1.09" height="4.04"/><rect class="cls-1" x="1.04" y="106.53" width="1.09" height="4.04"/><rect class="cls-1" x="1.04" y="111.38" width="1.09" height="4.04"/><circle class="cls-2" cx="1.59" cy="115.41" r="1.59"/></g></g></svg>