<svg xmlns="http://www.w3.org/2000/svg" viewBox="0 0 160.43 160.38"><defs><style>.cls-1{fill:#fff;}</style></defs><title>globe</title><g id="Layer_2" data-name="Layer 2"><g id="Layer_1-2" data-name="Layer 1"><path class="cls-1" d="M146.9,43.63c-6.47,11-14.92,18.34-27.66,17-5.33-.56-10.84-3.24-15.42-6.25-7.4-4.88-15.31-4.58-22.52-2-14.22,5.12-33.72-4.24-40.66-16.79A49.91,49.91,0,0,1,35.7,23.81C33.4,14.65,34.64,12.45,43,8.22,55.8,1.76,69.43-.25,83.64,0c22.6.44,41.16,9.61,56.24,25.9a76,76,0,0,1,18.27,34.89c4.6,19.6,2.17,38.24-6.69,56.07-2.62,5.28-6.31,10-9.85,15.54a84.15,84.15,0,0,1,9.07.11c1.14.12,2.16,1.42,3.24,2.18-1,.73-2,2-3.11,2.1-5,.52-10,.66-14.95,1-2.54.19-3.62-.84-3.69-3.4-.11-4.83-.55-9.66-.53-14.48,0-1,1.4-2.09,2.16-3.14.8,1,2.13,1.86,2.29,2.93a85.49,85.49,0,0,1,.53,8.78l1.42.54,9.85-14.51c-5.74-2.08-10.74-3.7-15.58-5.7-9.36-3.88-15.15-11-17.73-20.71-1.27-4.83,3.25-12.45,8.71-14.19,3.61-1.15,7.48-1.5,11.2-2.35,3.38-.78,6.92-1.3,10-2.72,6.78-3.09,8.93-8.38,6.56-15.32C150,50.32,148.42,47.2,146.9,43.63Zm-28.24,12.7c11,0,19.71-5.57,23-13.92.81-2,.66-5.41-.54-7.13-13.49-19.4-32.88-28.91-55.79-31.2C70.67,2.62,56.78,6.83,43.58,13.3c-3.36,1.64-4.95,3.85-3.59,7.5,1.65,4.43,2.95,9.11,5.31,13.16,6.79,11.7,23,18.3,35.28,14.1C90.93,44.52,100,46.43,109,51.94,112.6,54.13,116.72,55.47,118.66,56.33ZM154.94,67c-11.54,7.45-8.21,8.26-24.6,9.94a20.44,20.44,0,0,0-6.16,1.84,8.92,8.92,0,0,0-4.61,10.8c4.67,12.19,17.5,18.06,27.54,19a4.63,4.63,0,0,0,3.77-2C156.28,93.84,157.1,80.68,154.94,67Z"/><path class="cls-1" d="M16.51,29.86c-3.43,0-6.37.18-9.27-.1-1-.09-1.79-1.37-2.68-2.11.79-.87,1.49-2.42,2.36-2.52A157.34,157.34,0,0,1,22.85,24c1,0,2.8,1.83,2.92,3a145.1,145.1,0,0,1,.77,15.46c0,1.05-1.44,2.1-2.22,3.15-.8-1-2.14-1.87-2.31-2.95-.45-2.9-.41-5.89-.62-9.93A65.41,65.41,0,0,0,5.67,69.45c5-2.29,9.49-4.65,14.17-6.39,20-7.44,41.49,1,50.13,20.37,3.4,7.62,5.33,16,7.13,24.2,2.29,10.41,5.76,19.68,17.17,22.79,3.92,1.07,8.24.93,12.37.93,8.12,0,13.94,3.58,17.77,10.62,1.27,2.35,1.27,4-1.4,5.76a76.45,76.45,0,0,1-55.36,11.53c-24.9-4.13-44.5-17.29-57.15-39.79-13.66-24.28-13.28-49.15-3-74.28C9.68,39.93,13.29,35.28,16.51,29.86ZM79.78,155.77c12.75.36,24.27-3.75,35.54-8.84,5.08-2.3,5.46-4.11,1.26-7.8a9.66,9.66,0,0,0-4.87-2.27c-4.26-.56-8.58-.68-12.88-.92-9.34-.51-16.94-4.52-20.83-13a100.56,100.56,0,0,1-6.94-22.09C68.54,88.32,63.81,77.2,52.63,70.38,39,62.09,25.14,64.44,11.86,71.65,7.71,73.9,4.3,76.84,4.81,83c1.08,13,3.87,25.08,10.92,36.26C30.68,142.92,52.49,154.08,79.78,155.77Z"/></g></g></svg>