<svg xmlns="http://www.w3.org/2000/svg" xmlns:xlink="http://www.w3.org/1999/xlink" viewBox="0 0 1562.98 864.87"><defs><style>.cls-1,.cls-2{fill-rule:evenodd;}.cls-1{fill:url(#linear-gradient);}.cls-2{fill:#5282f0;}</style><linearGradient id="linear-gradient" x1="781.49" y1="3.74" x2="781.49" y2="859.06" gradientUnits="userSpaceOnUse"><stop offset="0" stop-color="#fafafa"/><stop offset="1" stop-color="#e6e6e6"/></linearGradient></defs><title>Asset 1</title><g id="Layer_2" data-name="Layer 2"><g id="Layer_1-2" data-name="Layer 1"><path class="cls-1" d="M1117.66,114C923,102,980.1,373,619,281.79c-338.28-85.44-583.86,157-619,194.4V864.87H1563V2.36C1464.92,173.65,1309.32,125.74,1117.66,114Z"/><path class="cls-2" d="M1117.09,112.57c-194.65-12-137.56,259-498.61,167.83C281.89,195.4,37.09,435,0,474.22V864.87H0V476.19c35.17-37.36,280.75-279.84,619-194.4C980.1,373,923,102,1117.66,114c191.66,11.78,347.26,59.69,445.32-111.6V0C1465,172.45,1309.12,124.38,1117.09,112.57Z"/></g></g></svg>